<svg width="30" height="30" viewBox="0 0 30 30" fill="none" xmlns="http://www.w3.org/2000/svg">
<path d="M9.85714 0H3.85714C1.73143 0 0 1.73143 0 3.85714V9.85714C0 11.9829 1.73143 13.7143 3.85714 13.7143H9.85714C11.9829 13.7143 13.7143 11.9829 13.7143 9.85714V3.85714C13.7143 1.73143 11.9829 0 9.85714 0ZM11.1429 9.85714C11.1429 10.5686 10.5686 11.1429 9.85714 11.1429H3.85714C3.14571 11.1429 2.57143 10.5686 2.57143 9.85714V3.85714C2.57143 3.14571 3.14571 2.57143 3.85714 2.57143H9.85714C10.5686 2.57143 11.1429 3.14571 11.1429 3.85714V9.85714Z" fill="#0A0B0D"/>
<path d="M26.1429 0H20.1429C18.0171 0 16.2857 1.73143 16.2857 3.85714V9.85714C16.2857 11.9829 18.0171 13.7143 20.1429 13.7143H26.1429C28.2686 13.7143 30 11.9829 30 9.85714V3.85714C30 1.73143 28.2686 0 26.1429 0ZM27.4286 9.85714C27.4286 10.5686 26.8543 11.1429 26.1429 11.1429H20.1429C19.4314 11.1429 18.8571 10.5686 18.8571 9.85714V3.85714C18.8571 3.14571 19.4314 2.57143 20.1429 2.57143H26.1429C26.8543 2.57143 27.4286 3.14571 27.4286 3.85714V9.85714Z" fill="#0A0B0D"/>
<path d="M9.85714 16.2857H3.85714C1.73143 16.2857 0 18.0171 0 20.1429V26.1429C0 28.2686 1.73143 30 3.85714 30H9.85714C11.9829 30 13.7143 28.2686 13.7143 26.1429V20.1429C13.7143 18.0171 11.9829 16.2857 9.85714 16.2857ZM11.1429 26.1429C11.1429 26.8543 10.5686 27.4286 9.85714 27.4286H3.85714C3.14571 27.4286 2.57143 26.8543 2.57143 26.1429V20.1429C2.57143 19.4314 3.14571 18.8571 3.85714 18.8571H9.85714C10.5686 18.8571 11.1429 19.4314 11.1429 20.1429V26.1429Z" fill="#0A0B0D"/>
<path d="M19.2857 16.2857H17.5714C16.8613 16.2857 16.2857 16.8613 16.2857 17.5714V19.2857C16.2857 19.9958 16.8613 20.5714 17.5714 20.5714H19.2857C19.9958 20.5714 20.5714 19.9958 20.5714 19.2857V17.5714C20.5714 16.8613 19.9958 16.2857 19.2857 16.2857Z" fill="#0A0B0D"/>
<path d="M24 21H22.2857C21.5756 21 21 21.5756 21 22.2857V24C21 24.7101 21.5756 25.2857 22.2857 25.2857H24C24.7101 25.2857 25.2857 24.7101 25.2857 24V22.2857C25.2857 21.5756 24.7101 21 24 21Z" fill="#0A0B0D"/>
<path d="M24 4.71429H22.2857C21.5756 4.71429 21 5.28992 21 6V7.71429C21 8.42437 21.5756 9 22.2857 9H24C24.7101 9 25.2857 8.42437 25.2857 7.71429V6C25.2857 5.28992 24.7101 4.71429 24 4.71429Z" fill="#0A0B0D"/>
<path d="M7.71429 4.71429H6C5.28992 4.71429 4.71429 5.28992 4.71429 6V7.71429C4.71429 8.42437 5.28992 9 6 9H7.71429C8.42437 9 9 8.42437 9 7.71429V6C9 5.28992 8.42437 4.71429 7.71429 4.71429Z" fill="#0A0B0D"/>
<path d="M7.71429 21H6C5.28992 21 4.71429 21.5756 4.71429 22.2857V24C4.71429 24.7101 5.28992 25.2857 6 25.2857H7.71429C8.42437 25.2857 9 24.7101 9 24V22.2857C9 21.5756 8.42437 21 7.71429 21Z" fill="#0A0B0D"/>
<path d="M28.7143 16.2857H27C26.2899 16.2857 25.7143 16.8613 25.7143 17.5714V19.2857C25.7143 19.9958 26.2899 20.5714 27 20.5714H28.7143C29.4244 20.5714 30 19.9958 30 19.2857V17.5714C30 16.8613 29.4244 16.2857 28.7143 16.2857Z" fill="#0A0B0D"/>
<path d="M19.2857 25.7143H17.5714C16.8613 25.7143 16.2857 26.2899 16.2857 27V28.7143C16.2857 29.4244 16.8613 30 17.5714 30H19.2857C19.9958 30 20.5714 29.4244 20.5714 28.7143V27C20.5714 26.2899 19.9958 25.7143 19.2857 25.7143Z" fill="#0A0B0D"/>
<path d="M28.7143 25.7143H27C26.2899 25.7143 25.7143 26.2899 25.7143 27V28.7143C25.7143 29.4244 26.2899 30 27 30H28.7143C29.4244 30 30 29.4244 30 28.7143V27C30 26.2899 29.4244 25.7143 28.7143 25.7143Z" fill="#0A0B0D"/>
</svg>
