<svg width="38.833" height="32" viewBox="0 0 38.8331 32.0002" fill="none" xmlns="http://www.w3.org/2000/svg">
<path d="M29.2589 15.545C32.2503 13.7476 36.1324 14.7157 37.9298 17.7071C39.727 20.6985 38.759 24.5806 35.7677 26.378L27.9151 31.0968C24.9238 32.8942 21.0417 31.926 19.2442 28.9347C17.4469 25.9434 18.4143 22.0613 21.4054 20.2638L29.2589 15.545ZM20.5743 0.903413C23.5656 -0.89399 27.4478 0.074261 29.2452 3.06552C31.0425 6.05682 30.0752 9.93888 27.0841 11.7364L9.5743 22.2579C6.583 24.0551 2.70077 23.087 0.903403 20.0958C-0.893962 17.1044 0.0742202 13.2224 3.06551 11.4249L20.5743 0.903413Z" fill="#BCF292"/>
</svg>
