<svg width="36" height="36" viewBox="0 0 36 36" fill="none" xmlns="http://www.w3.org/2000/svg">
<path d="M18 0C8.06 0 0 8.06 0 18C0 27.94 8.06 36 18 36C27.94 36 36 27.94 36 18C36 8.06 27.94 0 18 0ZM19.85 27.32V28.64C19.85 29.58 18.78 30.12 18.02 29.55L14.83 27.16C13.91 26.47 13.91 25.1 14.83 24.42L18.02 22.02C18.78 21.45 19.85 21.99 19.85 22.93V24.23C22.53 23.43 24.5 20.94 24.5 18C24.5 14.42 21.58 11.5 18 11.5C14.42 11.5 11.5 14.42 11.5 18C11.5 18.98 11.72 19.96 12.15 20.84C12.51 21.59 12.2 22.49 11.46 22.85C10.71 23.21 9.82 22.9 9.45 22.16C8.83 20.87 8.5 19.43 8.5 18C8.5 12.76 12.76 8.5 18 8.5C23.24 8.5 27.5 12.76 27.5 18C27.5 22.61 24.21 26.45 19.85 27.32Z" fill="#78C4F5"/>
</svg>
