<svg width="17" height="24" viewBox="0 0 17.0507 24" fill="none" xmlns="http://www.w3.org/2000/svg">
<path fill-rule="evenodd" clip-rule="evenodd" d="M14.6764 13.3188C14.1824 14.448 13.5293 15.5007 12.736 16.4443C13.2698 14.3252 13.0029 11.5919 11.8474 8.93639C11.266 7.59915 10.47 6.36596 9.49065 5.28522C10.9584 4.09792 12.4878 3.71045 13.6704 4.2578C14.4282 4.60766 15.0044 5.32542 15.3596 6.32885C16.0188 8.23442 15.7628 10.8476 14.6659 13.3188H14.6764ZM2.35922 13.3188C1.2728 10.8476 1.02466 8.24788 1.67598 6.32885C2.02291 5.32283 2.60736 4.60766 3.36525 4.2578C4.54737 3.71045 6.07675 4.09792 7.54764 5.28522C6.56685 6.36513 5.76969 7.59831 5.18824 8.93639C4.02183 11.6054 3.76015 14.3252 4.29964 16.4412C3.50591 15.4995 2.85241 14.4476 2.35922 13.3188ZM9.6186 18.6758C8.92148 19.003 8.11412 19.003 7.417 18.6758C5.14018 17.6265 4.67842 13.4096 6.41048 9.47589C6.93209 8.27496 7.64718 7.16756 8.527 6.19822C9.40456 7.16756 10.1166 8.27496 10.6356 9.47589C12.3568 13.4096 11.8955 17.6265 9.6186 18.6758ZM12.7093 2.68036C11.3616 2.62444 9.89082 3.21417 8.51914 4.35133C7.14437 3.21417 5.67399 2.62971 4.3263 2.68036C6.83514 0.894556 10.2001 0.894556 12.7093 2.68036ZM16.6273 5.90988V5.8833C16.6269 5.87887 16.6269 5.87411 16.6273 5.86976C15.16 1.39652 10.3438 -1.04068 5.87015 0.427106C3.28401 1.2755 1.25884 3.30769 0.418802 5.89634C0.420056 5.90161 0.420056 5.90729 0.418802 5.91255C-0.333898 8.1251 -0.0617692 11.0878 1.1527 13.8473C2.81263 17.6216 5.82602 20.2528 8.49248 20.2528H8.56979C11.2389 20.2528 14.2492 17.629 15.9096 13.8473C17.1131 11.093 17.3853 8.1251 16.6273 5.90988ZM10.8011 22.3321C10.08 22.5492 9.33118 22.6619 8.57806 22.6654H8.47368C7.71579 22.6628 6.96226 22.5483 6.23706 22.3269C5.88327 22.222 5.51194 22.4242 5.40705 22.7777C5.30266 23.1315 5.5045 23.5029 5.85786 23.6081C6.70668 23.8637 7.58733 23.9952 8.47368 24H8.57806C9.4588 23.9961 10.3342 23.865 11.1773 23.6108C11.525 23.488 11.7076 23.1071 11.5854 22.7594C11.4722 22.4374 11.1336 22.2526 10.8011 22.3321Z" fill="#49CC68"/>
</svg>
