<svg width="36" height="36" viewBox="0 0 36 36" fill="none" xmlns="http://www.w3.org/2000/svg">
<path d="M17.9736 0C20.4467 0 22.7692 0.470231 24.9404 1.41113C27.1116 2.35202 29.0272 3.65342 30.6875 5.31445C32.3479 6.96402 33.6484 8.87554 34.5889 11.0479C35.5293 13.2201 36 15.5373 36 18C36 20.4627 35.5293 22.7799 34.5889 24.9521C33.6484 27.1245 32.3479 29.0419 30.6875 30.7031C29.0272 32.3641 27.1115 33.6596 24.9404 34.5889C22.7692 35.5298 20.4527 36 17.9912 36C15.5297 36 13.2132 35.5298 11.042 34.5889C8.87086 33.6596 6.95523 32.3642 5.29492 30.7031C3.64616 29.0419 2.35163 27.1245 1.41113 24.9521C0.470699 22.7799 0 20.4627 0 18C0 15.5373 0.470699 13.2201 1.41113 11.0479C2.35163 8.87554 3.64616 6.96402 5.29492 5.31445C6.95522 3.65341 8.86491 2.35203 11.0244 1.41113C13.1956 0.470215 15.5122 3.0895e-05 17.9736 0ZM25.7432 9.62109C25.4448 9.51449 25.0874 9.55713 24.6719 9.74902L15.3857 14.1621C15.1089 14.2793 14.8693 14.4392 14.667 14.6416C14.4752 14.8335 14.3094 15.0794 14.1709 15.3779L9.74414 24.7168C9.56309 25.1111 9.52531 25.4574 9.63184 25.7559C9.73839 26.0544 9.9409 26.2626 10.2393 26.3799C10.5482 26.4865 10.8998 26.4487 11.2939 26.2676L20.6289 21.8223C21.1615 21.5771 21.5608 21.1772 21.8271 20.623L26.2383 11.2998C26.4194 10.8947 26.4571 10.5426 26.3506 10.2441C26.2546 9.93516 26.0521 9.72767 25.7432 9.62109ZM18.0068 15.9053C18.5822 15.9053 19.0726 16.1135 19.4775 16.5293C19.8931 16.9451 20.1016 17.4409 20.1016 18.0166C20.1015 18.6027 19.893 19.1039 19.4775 19.5195C19.0727 19.9352 18.5821 20.1426 18.0068 20.1426C17.421 20.1425 16.9203 19.9351 16.5049 19.5195C16.0894 19.1039 15.8819 18.6027 15.8818 18.0166C15.8818 17.441 16.0894 16.945 16.5049 16.5293C16.9203 16.1136 17.421 15.9054 18.0068 15.9053Z" fill="#78C4F5"/>
</svg>
