<svg width="17" height="16" viewBox="0 0 17 16" fill="none" xmlns="http://www.w3.org/2000/svg">
<path d="M8.54958 10.7386C8.3725 10.7386 8.18833 10.6678 8.04667 10.5261C7.77042 10.2499 7.77042 9.80365 8.04667 9.5274L9.2225 8.35156H0V11.5391C0 13.4941 1.58667 15.0807 3.54167 15.0807H10.2708V9.3149L9.0525 10.5261C8.91083 10.6678 8.73375 10.7386 8.54958 10.7386Z" fill="white"/>
<path d="M13.8196 9.5274C14.0958 9.80365 14.0958 10.2499 13.8196 10.5261C13.685 10.6678 13.5008 10.7386 13.3237 10.7386C13.1467 10.7386 12.9554 10.6678 12.8208 10.5261L11.6875 9.39281V15.0807H13.4583C15.4133 15.0807 17 13.4941 17 11.5391V8.35156H12.6438L13.8196 9.5274Z" fill="white"/>
<path d="M13.5291 5.6741C13.5291 5.48285 13.3804 5.2066 12.9766 5.2066C12.3533 5.2066 11.9212 5.89369 11.7583 6.71535C12.3108 6.6516 12.9837 6.49577 13.3237 6.16285C13.4654 6.02827 13.5291 5.87244 13.5291 5.6741Z" fill="white"/>
<path d="M8.98168 5.2066C8.57793 5.2066 8.42918 5.48285 8.42918 5.6741C8.42918 5.86535 8.49293 6.02827 8.6346 6.16994C8.98168 6.50285 9.64752 6.6516 10.2 6.71535C10.0371 5.89369 9.60502 5.2066 8.98168 5.2066Z" fill="white"/>
<path d="M0 4.45573V6.9349H7.43042C7.15417 6.57365 7.0125 6.14156 7.0125 5.67406C7.0125 4.74615 7.74917 3.7899 8.98167 3.7899C9.4775 3.7899 9.90958 3.93156 10.2708 4.18656V0.914062H3.54167C1.58667 0.914062 0 2.50073 0 4.45573Z" fill="white"/>
<path d="M13.4583 0.914062H11.6875V4.18656C12.0487 3.93156 12.4808 3.7899 12.9767 3.7899C14.2092 3.7899 14.9458 4.74615 14.9458 5.67406C14.9458 6.14156 14.8042 6.57365 14.5279 6.9349H17V4.45573C17 2.50073 15.4133 0.914062 13.4583 0.914062Z" fill="white"/>
</svg>