<svg width="32" height="32" viewBox="0 0 32.0036 32" fill="none" xmlns="http://www.w3.org/2000/svg">
<path d="M30.9339 1.0713C30.2382 0.375652 29.3061 0 28.36 0C27.9982 0 27.6365 0.0556522 27.2748 0.166957L2.57912 7.76348C0.853901 8.29217 -0.24523 10.0035 0.046944 11.8678C0.227814 13.0365 1.04868 14.0243 2.11999 14.553L8.39477 17.6974C9.57738 18.2817 10.9965 18.0591 11.9287 17.127L15.9217 13.1339C16.7426 12.313 18.0504 12.313 18.8713 13.1339C19.6922 13.9409 19.6922 15.2765 18.8713 16.0835L14.8782 20.0765C13.9461 21.0087 13.7235 22.4278 14.3078 23.6104L17.4939 29.9826C18.12 31.2348 19.3722 32 20.7496 32C20.8469 32 20.9583 32 21.0556 31.9861C22.5443 31.8609 23.7965 30.8591 24.2417 29.4261L31.8382 4.73044C32.2417 3.42261 31.8939 2.0313 30.9339 1.0713Z" fill="#008DE4"/>
</svg>
