<svg width="44" height="20" viewBox="0 0 44 19.855" fill="none" xmlns="http://www.w3.org/2000/svg">
<path d="M34.7647 19.8257C32.665 19.7081 30.6374 19.2373 28.7384 18.4253C27.2371 17.7843 25.8176 16.9321 24.5194 15.892C23.6151 15.1689 22.7982 14.3802 22.0918 13.55C22.0602 13.5127 22.0311 13.4754 22 13.4381C21.9689 13.4749 21.9398 13.5127 21.9082 13.55C21.2018 14.3802 20.3854 15.1684 19.4801 15.892C18.181 16.9326 16.7615 17.7848 15.2611 18.4253C13.3626 19.2373 11.3346 19.7081 9.23439 19.8257C8.74494 19.853 8.24306 19.8611 7.74502 19.8506C7.2594 19.8401 6.87177 19.4438 6.87177 18.9587V10.7008H0V2.04475H8.6565V8.85487C9.6741 8.73825 10.5775 8.44573 11.3948 7.96298C12.0267 7.58969 12.638 7.0644 13.2637 6.35748C13.561 6.02147 13.8344 5.66394 14.124 5.28539C14.3893 4.93838 14.6641 4.57943 14.9624 4.23338C14.9963 4.19323 15.0312 4.15451 15.0666 4.1158L15.1139 4.06321L15.7744 4.65112L15.1191 4.04744C17.3551 1.62127 19.4988 0.271005 21.49 0.0344095C21.6831 0.011467 21.8772 0 22.0731 0C24.2101 0 26.4996 1.3646 28.888 4.06561L28.9377 4.12058C28.9712 4.15786 29.0046 4.19513 29.0372 4.23242C29.3354 4.57847 29.6098 4.93743 29.875 5.28444C30.1652 5.66299 30.4386 6.02099 30.7363 6.35748C31.362 7.06487 31.9733 7.59017 32.6047 7.96298C33.422 8.44573 34.3259 8.73825 35.3435 8.85487V2.04475H44V10.7008H37.1282V18.9587C37.1282 19.4438 36.7406 19.8401 36.2555 19.8506C36.1168 19.8534 35.9778 19.8549 35.8387 19.8549C35.4783 19.8549 35.1184 19.8453 34.7647 19.8257ZM29.3923 8.83145C27.4178 8.87064 25.3047 9.89062 23.4425 11.7045C23.3894 11.7566 23.2681 11.8814 23.1419 12.0152C23.2442 12.1443 23.346 12.2695 23.4511 12.3933C24.0839 13.1375 24.8186 13.8458 25.635 14.4987C26.807 15.4375 28.0874 16.2061 29.4396 16.7844C31.1474 17.5138 32.9728 17.9382 34.8646 18.0438C35.0228 18.0524 35.1829 18.0591 35.3435 18.0639V10.7008V10.6511C33.9985 10.522 32.7754 10.1358 31.6976 9.49966C31.4208 9.33619 31.1484 9.15121 30.8797 8.94425C30.6776 8.91413 30.4797 8.88929 30.2894 8.87112C30.136 8.85631 29.9811 8.84483 29.8263 8.83718C29.724 8.8324 29.6227 8.83002 29.5209 8.83002C29.4779 8.83002 29.4353 8.83049 29.3923 8.83145ZM21.7003 1.80673C20.1689 1.98883 18.3507 3.17753 16.4427 5.24571L16.4474 5.24955L16.315 5.39723C16.0502 5.70505 15.8031 6.02768 15.5412 6.36991C15.2458 6.75658 14.9399 7.15617 14.6006 7.53998C13.8492 8.38933 13.0973 9.03077 12.3025 9.49966C11.2247 10.1358 10.001 10.522 8.6565 10.6511V10.7008V18.0639C8.8171 18.0591 8.97626 18.0524 9.13447 18.0438C11.0272 17.9382 12.8521 17.5138 14.5599 16.7844C15.9121 16.2065 17.1921 15.4379 18.3655 14.4987C19.1814 13.8458 19.9156 13.1375 20.5489 12.3933C20.7348 12.1748 20.9102 11.9493 21.0966 11.7103L21.2286 11.5415C21.4207 11.1826 21.7945 10.8174 22.1984 10.425C24.278 8.39985 26.6784 7.21544 28.998 7.06249C28.8106 6.83067 28.6328 6.59742 28.4579 6.36848C28.1964 6.02721 27.9498 5.70456 27.684 5.39627L27.5511 5.2481C25.5418 2.97631 23.6552 1.78521 22.066 1.78473C21.9422 1.78473 21.8203 1.79239 21.7003 1.80673ZM37.1282 8.91605H42.2153V3.82949H37.1282V8.91605ZM1.78473 8.91605H6.87129V3.82949H1.78473V8.91605Z" fill="url(#paint0_linear_31069_26536)"/>
<defs>
<linearGradient id="paint0_linear_31069_26536" x1="12.719" y1="-4.4101" x2="33.4161" y2="20.1248" gradientUnits="userSpaceOnUse">
<stop stop-color="#54F4FC"/>
<stop offset="1" stop-color="#72FFA6"/>
</linearGradient>
</defs>
</svg>
