<svg width="34.249" height="36" viewBox="0 0 34.249 36" fill="none" xmlns="http://www.w3.org/2000/svg">
<path d="M34.202 27.675L32.867 15.675C32.477 12.105 29.642 9.37504 26.132 9.03004C25.892 9.01504 25.652 9.00004 25.412 9.00004H8.83698C8.59698 9.00004 8.35698 9.01504 8.13198 9.03004C4.62198 9.36004 1.77198 12.105 1.38198 15.675L0.0469782 27.675C-0.448022 32.115 3.03198 36 7.50198 36H26.747C31.217 36 34.697 32.115 34.202 27.675ZM8.35698 22.8L8.37198 22.77C8.53698 22.035 8.80698 20.865 10.547 20.865H17.432C17.432 20.865 17.372 21.255 17.147 22.2V22.23C16.967 22.965 16.712 24.135 14.957 24.135H8.07198C8.07198 24.135 8.14698 23.745 8.35698 22.8ZM25.922 22.755C25.367 25.8 23.972 28.14 21.632 29.235C20.567 29.73 19.577 30 17.222 30H10.577L11.117 26.88H16.982C20.492 26.895 21.437 25.35 21.887 24C22.067 23.49 22.457 21.93 22.472 21.015C22.502 19.215 21.617 18.12 18.647 18.12H12.632L12.842 16.92L13.187 15H19.862C21.272 15 22.412 15.195 23.297 15.54C26.117 16.635 26.552 19.32 25.922 22.755Z" fill="#008DE4"/>
<path d="M17.132 3.75601e-05C12.152 3.75601e-05 8.13195 4.03504 8.13195 9.00004V9.03004C8.35695 9.01504 8.59695 9.00004 8.83695 9.00004H11.132C11.132 5.68504 13.817 3.00004 17.132 3.00004C20.447 3.00004 23.132 5.68504 23.132 9.00004H25.412C25.652 9.00004 25.892 9.01504 26.132 9.03004V9.00004C26.132 4.03504 22.097 3.75601e-05 17.132 3.75601e-05Z" fill="#78C4F5"/>
</svg>
