<svg width="25" height="12" viewBox="0 0 25 11.2813" fill="none" xmlns="http://www.w3.org/2000/svg">
<path d="M19.7527 11.2646C18.5596 11.1978 17.4076 10.9303 16.3286 10.4689C15.4756 10.1047 14.6691 9.6205 13.9315 9.02956C13.4177 8.61867 12.9535 8.17057 12.5521 7.69885C12.5342 7.67767 12.5177 7.65648 12.5 7.6353C12.4824 7.65621 12.4658 7.67767 12.4479 7.69885C12.0465 8.17057 11.5826 8.6184 11.0683 9.02956C10.3301 9.62078 9.52356 10.105 8.67109 10.4689C7.5924 10.9303 6.44011 11.1978 5.24681 11.2646C4.96872 11.2801 4.68356 11.2847 4.40058 11.2787C4.12466 11.2728 3.90441 11.0476 3.90441 10.772V6.08H0V1.16179H4.91846V5.03118C5.49665 4.96491 6.00992 4.79871 6.47431 4.52442C6.83333 4.31232 7.18069 4.01386 7.53618 3.6122C7.70509 3.42129 7.86043 3.21815 8.02501 3.00306C8.17573 2.8059 8.33189 2.60195 8.50135 2.40533C8.52064 2.38252 8.54045 2.36052 8.56055 2.33852L8.58743 2.30864L8.96275 2.64268L8.59041 2.29968C9.86084 0.921175 11.0789 0.15398 12.2102 0.0195509C12.3199 0.00651532 12.4302 0 12.5415 0C13.7558 0 15.0566 0.775339 16.4136 2.31L16.4419 2.34124C16.4609 2.36242 16.4799 2.3836 16.4984 2.40478C16.6678 2.6014 16.8237 2.80536 16.9744 3.00252C17.1393 3.21761 17.2946 3.42102 17.4638 3.6122C17.8193 4.01413 18.1667 4.3126 18.5254 4.52442C18.9898 4.79871 19.5034 4.96491 20.0815 5.03118V1.16179H25V6.08H21.0956V10.772C21.0956 11.0476 20.8753 11.2728 20.5997 11.2787C20.5209 11.2804 20.4419 11.2812 20.3629 11.2812C20.1581 11.2812 19.9536 11.2758 19.7527 11.2646ZM16.7002 5.01787C15.5783 5.04014 14.3777 5.61967 13.3196 6.6503C13.2895 6.6799 13.2205 6.75078 13.1488 6.82683C13.2069 6.90015 13.2647 6.9713 13.3245 7.04164C13.6841 7.46448 14.1015 7.86695 14.5653 8.23792C15.2312 8.77129 15.9588 9.20798 16.7271 9.53659C17.6974 9.95101 18.7345 10.1922 19.8094 10.2522C19.8993 10.2571 19.9903 10.2609 20.0815 10.2636V6.08V6.05175C19.3173 5.97843 18.6224 5.759 18.01 5.39753C17.8527 5.30465 17.6979 5.19955 17.5453 5.08196C17.4304 5.06485 17.318 5.05073 17.2099 5.04041C17.1227 5.03199 17.0347 5.02547 16.9467 5.02113C16.8886 5.01841 16.8311 5.01706 16.7732 5.01706C16.7488 5.01706 16.7246 5.01733 16.7002 5.01787ZM12.3297 1.02655C11.4596 1.13002 10.4265 1.80542 9.34241 2.98052L9.34513 2.9827L9.2699 3.06661C9.11944 3.2415 8.97905 3.42482 8.83023 3.61926C8.6624 3.83897 8.48858 4.066 8.29577 4.28408C7.86885 4.76666 7.44167 5.13112 6.99004 5.39753C6.37765 5.759 5.6824 5.97843 4.91846 6.05175V6.08V10.2636C5.00971 10.2609 5.10015 10.2571 5.19004 10.2522C6.26547 10.1922 7.30234 9.95101 8.27268 9.53659C9.04096 9.20826 9.76824 8.77156 10.435 8.23792C10.8985 7.86695 11.3157 7.46448 11.6755 7.04164C11.7811 6.91753 11.8808 6.78935 11.9867 6.65356L12.0617 6.5577C12.1709 6.35374 12.3832 6.14626 12.6127 5.9233C13.7943 4.77264 15.1582 4.09968 16.4761 4.01278C16.3697 3.88106 16.2686 3.74854 16.1692 3.61845C16.0207 3.42455 15.8806 3.24123 15.7296 3.06606L15.6541 2.98188C14.5124 1.69109 13.4405 1.01432 12.5375 1.01405C12.4671 1.01405 12.3979 1.0184 12.3297 1.02655ZM21.0956 5.06594H23.9859V2.17585H21.0956V5.06594ZM1.01405 5.06594H3.90414V2.17585H1.01405V5.06594Z" fill="url(#paint0_linear_31069_26493)"/>
<defs>
<linearGradient id="paint0_linear_31069_26493" x1="7.22673" y1="-2.50574" x2="18.9864" y2="11.4346" gradientUnits="userSpaceOnUse">
<stop stop-color="#54F4FC"/>
<stop offset="1" stop-color="#72FFA6"/>
</linearGradient>
</defs>
</svg>
