<svg width="352" height="48" viewBox="0 0 352 48" fill="none" xmlns="http://www.w3.org/2000/svg">
<path d="M88.2256 4.05952H72.9162L71.6475 11.2129L85.4623 11.2297C92.2661 11.2297 94.278 13.7213 94.2206 17.8576C94.191 19.9767 93.2803 23.5585 92.887 24.7198C91.8385 27.8153 89.6851 31.3476 81.6097 31.3336L68.1808 31.328L66.9093 38.4843H82.1844C87.5723 38.4843 89.8655 37.8523 92.2901 36.7209C97.6697 34.2154 100.871 28.8599 102.152 21.8707C104.063 11.4631 101.684 4.05952 88.2256 4.05952Z" fill="#008DE4"/>
<path d="M134.252 38.4842L135.285 32.2273H147.801C148.784 32.2273 149.473 31.601 149.62 30.5586C149.817 29.5153 149.325 28.8899 148.342 28.8899H142.358C137.636 28.8899 135.374 25.9704 136.211 20.9644C137.047 15.9583 140.293 13.0398 145.013 13.0398H158.611L157.529 19.2967H145.545C144.561 19.2967 143.873 19.9221 143.725 20.9644C143.529 22.0077 144.02 22.6331 145.004 22.6331H150.989C155.709 22.6331 157.971 25.5535 157.136 30.5586C156.301 35.5637 153.103 38.4842 148.382 38.4842H134.252Z" fill="#008DE4"/>
<path fill-rule="evenodd" clip-rule="evenodd" d="M114.516 38.4833C106.614 38.4833 103.062 33.9991 104.463 25.7611C105.814 17.5241 110.915 13.0399 118.817 13.0399H132.821L128.519 38.4842L114.516 38.4833ZM124.225 19.0274H120.6C116.273 19.0274 113.713 21.0914 112.962 25.7622C112.157 30.434 113.768 32.498 118.095 32.498H122.06L124.225 19.0274Z" fill="#008DE4"/>
<path d="M177.777 38.4796L180.282 23.7661C180.733 20.8647 179.594 19.622 176.789 19.622H172.801L169.595 38.4796H161.477L167.347 4.05952H175.464L173.902 13.2024H179.981C187.093 13.2024 189.648 16.4145 188.396 23.7708L185.891 38.4843L177.777 38.4796Z" fill="#008DE4"/>
<path d="M61.8587 21.8849C62.2422 20.2147 62.8587 17.5297 66.853 17.5297H82.6707C82.6707 17.5297 82.5063 18.4128 82.0048 20.5935C81.9999 20.6149 81.9949 20.6365 81.9899 20.6582C81.6064 22.3284 80.99 25.0134 76.9956 25.0134H61.178C61.178 25.0134 61.3424 24.1304 61.8438 21.9497C61.8488 21.9283 61.8537 21.9067 61.8587 21.8849Z" fill="#008DE4"/>
<path d="M332.183 38.8255C330.014 38.8255 328.089 38.3886 326.406 37.5149C324.723 36.6411 323.413 35.3952 322.474 33.7771C321.536 32.1591 321.067 30.2336 321.067 28.0007C321.067 25.8325 321.423 23.8261 322.135 21.9815C322.846 20.1369 323.85 18.535 325.144 17.1759C326.439 15.7843 327.96 14.7164 329.707 13.9721C331.487 13.2278 333.412 12.8556 335.483 12.8556C337.716 12.8556 339.61 13.2602 341.163 14.0692C342.716 14.8459 343.914 15.9947 344.755 17.5157C345.596 19.0043 346.017 20.8165 346.017 22.9523C346.017 25.25 345.693 27.3696 345.046 29.3113C344.431 31.253 343.509 32.9358 342.279 34.3596C341.05 35.7835 339.577 36.8838 337.862 37.6605C336.179 38.4372 334.286 38.8255 332.183 38.8255ZM332.911 35.7674C335.047 35.7674 336.94 35.2658 338.59 34.2626C340.273 33.227 341.584 31.8031 342.522 29.9909C343.493 28.1787 343.978 26.1237 343.978 23.8261C343.978 21.3019 343.234 19.3441 341.745 17.9525C340.289 16.561 338.234 15.8652 335.581 15.8652C333.477 15.8652 331.584 16.383 329.901 17.4186C328.218 18.4541 326.892 19.878 325.921 21.6903C324.982 23.4701 324.513 25.5251 324.513 27.8551C324.513 30.3469 325.241 32.2885 326.697 33.6801C328.186 35.0716 330.257 35.7674 332.911 35.7674ZM341.309 38.5828L342.765 31.253L344.221 26.1076L344.706 20.768L348.347 2.5648H351.794L344.609 38.5828H341.309Z" fill="#008DE4"/>
<path d="M306.029 12.8558C308.327 12.8558 310.204 13.3088 311.66 14.2149C313.149 15.0887 314.168 16.367 314.718 18.0497C315.301 19.7325 315.349 21.7389 314.864 24.0689L311.951 38.5829H308.505L311.417 24.0204C311.935 21.4962 311.66 19.5222 310.592 18.0983C309.557 16.6744 307.712 15.9624 305.058 15.9624C302.34 15.9624 300.075 16.7067 298.263 18.1954C296.483 19.684 295.285 21.9169 294.671 24.8941L291.952 38.5829H288.506L293.554 13.0985H296.855L295.399 20.4283L294.671 19.1662C295.9 16.9656 297.486 15.3638 299.428 14.3606C301.402 13.3574 303.602 12.8558 306.029 12.8558Z" fill="#008DE4"/>
<path d="M270.86 38.8256C268.433 38.8256 266.313 38.3887 264.501 37.515C262.721 36.6089 261.346 35.3468 260.375 33.7287C259.437 32.1107 258.967 30.1852 258.967 27.9523C258.967 25.0398 259.582 22.4509 260.812 20.1856C262.042 17.9203 263.724 16.1404 265.86 14.846C267.996 13.5192 270.407 12.8558 273.093 12.8558C275.358 12.8558 277.316 13.2926 278.966 14.1664C280.617 15.0078 281.895 16.2375 282.801 17.8556C283.74 19.4736 284.209 21.4153 284.209 23.6806C284.209 24.1984 284.177 24.7323 284.112 25.2825C284.047 25.8002 283.966 26.3018 283.869 26.7873H261.491L261.928 24.2145H282.267L280.86 25.1854C281.183 23.1466 281.038 21.4315 280.423 20.0399C279.808 18.6484 278.853 17.5967 277.559 16.8847C276.297 16.1404 274.776 15.7683 272.996 15.7683C270.925 15.7683 269.08 16.2861 267.462 17.3216C265.844 18.3248 264.582 19.7325 263.676 21.5447C262.77 23.3246 262.317 25.4119 262.317 27.8066C262.317 30.3632 263.045 32.3372 264.501 33.7287C265.99 35.0879 268.206 35.7675 271.151 35.7675C272.866 35.7675 274.452 35.4924 275.908 34.9423C277.365 34.3598 278.562 33.5669 279.5 32.5637L281.054 35.0394C279.856 36.2367 278.352 37.1752 276.539 37.8548C274.76 38.502 272.866 38.8256 270.86 38.8256Z" fill="#008DE4"/>
<path d="M240.486 38.8256C238.285 38.8256 236.392 38.4373 234.806 37.6606C233.253 36.8516 232.056 35.7028 231.214 34.2141C230.405 32.6932 229.985 30.8648 229.952 28.7289C229.952 25.5899 230.519 22.8392 231.651 20.4768C232.784 18.0821 234.386 16.2213 236.457 14.8945C238.528 13.5354 240.971 12.8558 243.787 12.8558C245.987 12.8558 247.913 13.2926 249.563 14.1664C251.246 15.0078 252.557 16.2375 253.495 17.8556C254.466 19.4736 254.951 21.3991 254.951 23.632C254.951 25.8326 254.595 27.8552 253.883 29.6998C253.171 31.5443 252.152 33.1462 250.825 34.5054C249.531 35.8646 248.01 36.9325 246.262 37.7092C244.515 38.4535 242.589 38.8256 240.486 38.8256ZM224.418 48L231.36 13.0985H234.661L233.205 20.4283L231.797 25.5252L231.263 30.8648L227.865 48H224.418ZM240.437 35.7675C242.573 35.7675 244.466 35.2659 246.117 34.2627C247.767 33.2271 249.062 31.8032 250 29.991C250.971 28.1788 251.456 26.1239 251.456 23.8262C251.456 21.302 250.728 19.3442 249.272 17.9527C247.816 16.5611 245.745 15.8654 243.059 15.8654C240.955 15.8654 239.062 16.3831 237.379 17.4187C235.729 18.4543 234.418 19.8781 233.447 21.6904C232.509 23.4702 232.04 25.5252 232.04 27.8552C232.04 30.347 232.768 32.2887 234.224 33.6802C235.68 35.0717 237.751 35.7675 240.437 35.7675Z" fill="#008DE4"/>
<path d="M207.078 38.8741C205.427 38.8741 203.793 38.6962 202.175 38.3402C200.589 37.9519 199.149 37.4341 197.855 36.7869C196.56 36.1073 195.525 35.363 194.748 34.5539L196.496 31.7385C197.272 32.5475 198.227 33.2595 199.36 33.8743C200.525 34.4892 201.803 34.9746 203.194 35.3306C204.586 35.6542 205.977 35.816 207.369 35.816C209.375 35.816 211.123 35.5571 212.611 35.0393C214.132 34.5216 215.314 33.7611 216.155 32.7579C216.996 31.7547 217.417 30.5411 217.417 29.1173C217.417 27.9846 217.093 27.0785 216.446 26.3989C215.799 25.687 214.958 25.1206 213.922 24.7C212.886 24.2469 211.738 23.8424 210.476 23.4864C209.214 23.1304 207.951 22.7421 206.689 22.3214C205.427 21.9007 204.262 21.3829 203.194 20.7681C202.159 20.1532 201.317 19.3442 200.67 18.341C200.055 17.3378 199.748 16.0757 199.748 14.5547C199.748 12.4189 200.33 10.5905 201.495 9.0695C202.66 7.51617 204.262 6.33499 206.301 5.52596C208.34 4.71693 210.686 4.31241 213.34 4.31241C215.346 4.31241 217.271 4.55512 219.116 5.04054C220.993 5.52595 222.579 6.25408 223.873 7.22492L222.368 10.1374C221.139 9.23131 219.731 8.55173 218.145 8.09867C216.559 7.61325 214.893 7.37054 213.145 7.37054C211.171 7.37054 209.44 7.64561 207.951 8.19575C206.463 8.74589 205.298 9.53874 204.456 10.5743C203.647 11.5775 203.243 12.791 203.243 14.2149C203.243 15.3476 203.55 16.2699 204.165 16.9818C204.812 17.6938 205.654 18.2763 206.689 18.7293C207.757 19.1824 208.922 19.6031 210.184 19.9914C211.446 20.3474 212.709 20.7357 213.971 21.1564C215.233 21.5447 216.382 22.0463 217.417 22.6612C218.485 23.2437 219.343 24.0204 219.99 24.9912C220.637 25.9297 220.961 27.1432 220.961 28.6318C220.961 30.8 220.362 32.6608 219.165 34.2141C217.967 35.7351 216.317 36.9001 214.213 37.7091C212.142 38.4858 209.764 38.8741 207.078 38.8741Z" fill="#008DE4"/>
<path d="M28.2398 0.0843251C30.1826 -0.269145 32.3269 0.503253 33.4816 2.1266C35.0002 4.08246 34.8431 7.15896 33.047 8.88966C32.1122 9.94745 30.7036 10.4685 29.3185 10.547C27.5512 10.5497 25.7629 9.69085 24.7915 8.19057C23.6211 6.48868 23.6211 4.08508 24.7705 2.37533C25.5665 1.1971 26.8311 0.330445 28.2398 0.0843251Z" fill="#008DE4"/>
<path d="M10.8333 2.59004C11.5428 2.43032 12.3152 2.50625 12.9567 2.8702C13.7946 3.36767 14.3863 4.29717 14.3601 5.2895C14.3837 6.06452 14.0486 6.8343 13.4542 7.33439C12.7918 8.04657 11.7392 8.16963 10.8254 8.00991C9.79906 7.73761 8.94288 6.84739 8.78578 5.78698C8.79102 5.2895 8.69938 4.76322 8.91669 4.29455C9.22303 3.44884 9.97711 2.82569 10.8333 2.59004Z" fill="#008DE4"/>
<path d="M37.1397 12.7675C40.4728 12.2674 43.9892 14.2337 45.3429 17.3181C45.9084 18.567 46.1414 19.9678 45.9843 21.3293C45.8639 23.1307 44.9815 24.8143 43.7483 26.1077C42.7324 27.0555 41.5071 27.7991 40.156 28.1474C38.6819 28.5139 37.0978 28.4982 35.6525 28.0165C33.7648 27.4247 32.1414 26.0684 31.17 24.3535C29.6017 21.6069 29.942 17.9046 32.0393 15.5246C33.3013 14.0007 35.1708 12.977 37.1397 12.7675Z" fill="#008DE4"/>
<path d="M19.2277 15.3727C20.6966 15.0559 22.3094 15.3151 23.5348 16.2131C24.3988 16.7735 25.0037 17.6532 25.4042 18.5879C25.9672 20.0306 25.8651 21.7351 25.0796 23.0809C24.0925 24.9373 21.8696 26.0003 19.8011 25.7176C17.751 25.5238 15.9182 23.9764 15.3578 21.997C14.7321 19.973 15.4861 17.5878 17.2037 16.3362C17.7929 15.8675 18.4972 15.5507 19.2277 15.3727Z" fill="#008DE4"/>
<path d="M2.44466 17.8442C3.80355 17.6924 5.20958 18.6978 5.41904 20.0698C5.67564 21.2925 4.9556 22.6357 3.78784 23.0834C2.26923 23.7904 0.247906 22.7378 0.0174959 21.0647C-0.00868707 20.473 -0.0505798 19.8446 0.274089 19.3183C0.666834 18.4778 1.54658 17.9673 2.44466 17.8442Z" fill="#008DE4"/>
<path d="M28.3605 27.9875C30.0284 27.8095 31.7591 28.1027 33.2253 28.9354C35.5215 30.2 37.1318 32.6717 37.247 35.3031C37.4067 37.5103 36.5715 39.8222 34.9298 41.3278C32.5576 43.8597 28.4102 44.3414 25.4385 42.616C23.2522 41.4534 21.7755 39.1493 21.477 36.7091C21.2361 34.8056 21.765 32.8314 22.8673 31.2656C24.111 29.4512 26.1873 28.2729 28.3605 27.9875Z" fill="#008DE4"/>
<path d="M10.8364 30.5195C13.2007 30.1425 15.6907 31.6192 16.5129 33.8631C17.0575 35.2796 16.958 36.9448 16.2118 38.2723C15.7248 39.1703 14.955 39.8851 14.0752 40.3905C12.9153 40.9822 11.5486 41.155 10.2813 40.8539C8.95909 40.5423 7.80442 39.694 7.05559 38.5681C6.08682 37.0417 5.96376 34.9889 6.80947 33.3813C7.54783 31.8208 9.13976 30.7342 10.8364 30.5195Z" fill="#008DE4"/>
</svg>
