<svg width="24" height="24" viewBox="0 0 24 24" fill="none" xmlns="http://www.w3.org/2000/svg">
<path fill-rule="evenodd" clip-rule="evenodd" d="M19 2H5C3.34315 2 2 3.34315 2 5V19C2 20.6569 3.34315 22 5 22H19C20.6569 22 22 20.6569 22 19V5C22 3.34315 20.6569 2 19 2ZM5 0C2.23858 0 0 2.23858 0 5V19C0 21.7614 2.23858 24 5 24H19C21.7614 24 24 21.7614 24 19V5C24 2.23858 21.7614 0 19 0H5Z" fill="#008DE4"/>
<path d="M4 6C4 4.89543 4.89543 4 6 4H9C10.1046 4 11 4.89543 11 6V9C11 10.1046 10.1046 11 9 11H6C4.89543 11 4 10.1046 4 9V6Z" fill="#008DE4"/>
<path d="M4 15C4 13.8954 4.89543 13 6 13H9C10.1046 13 11 13.8954 11 15V18C11 19.1046 10.1046 20 9 20H6C4.89543 20 4 19.1046 4 18V15Z" fill="#008DE4"/>
<path d="M13 6C13 4.89543 13.8954 4 15 4H18C19.1046 4 20 4.89543 20 6V9C20 10.1046 19.1046 11 18 11H15C13.8954 11 13 10.1046 13 9V6Z" fill="#008DE4"/>
<path d="M13 15C13 13.8954 13.8954 13 15 13H18C19.1046 13 20 13.8954 20 15V18C20 19.1046 19.1046 20 18 20H15C13.8954 20 13 19.1046 13 18V15Z" fill="#008DE4"/>
</svg>
