<svg width="36" height="36" viewBox="0 0 36 36" fill="none" xmlns="http://www.w3.org/2000/svg">
<path d="M32.6617 10.3389H28.222L24.5704 2.22001C24.1002 1.18267 22.883 0.712405 21.8318 1.18267C20.7807 1.65293 20.3242 2.88391 20.7945 3.92125L23.6714 10.3389H11.7765L14.6534 3.92125C15.1237 2.88391 14.6534 1.65293 13.6161 1.18267C12.5649 0.712405 11.3478 1.18267 10.8775 2.22001L7.22604 10.3389H2.78639C1.87353 10.3389 1.12665 11.0858 1.12665 11.9987V13.9765C1.12665 14.8894 1.87353 15.6225 2.78639 15.6225H32.6617C33.5745 15.6225 34.3214 14.8894 34.3214 13.9765V11.9987C34.3214 11.0858 33.5745 10.3389 32.6617 10.3389Z" fill="#008DE4"/>
<path d="M29.8539 18.4025H5.59413C4.72277 18.4025 4.05887 19.2047 4.23867 20.0761L6.65914 31.6943C7.06024 33.6169 8.76148 35 10.7255 35H24.7226C26.6866 35 28.3878 33.6169 28.7889 31.6943L31.2094 20.0623C31.3892 19.2047 30.7253 18.4025 29.8539 18.4025Z" fill="#008DE4"/>
</svg>