<svg width="33.195" height="34" viewBox="0 0 33.1949 34" fill="none" xmlns="http://www.w3.org/2000/svg">
<path d="M31.5352 9.33893H27.0954L23.4439 1.22001C22.9737 0.182666 21.7565 -0.287595 20.7053 0.182666C19.6542 0.652928 19.1977 1.88391 19.668 2.92125L22.5449 9.33893H10.65L13.5269 2.92125C13.9972 1.88391 13.5269 0.652928 12.4896 0.182666C11.4384 -0.287595 10.2213 0.182666 9.75101 1.22001L6.09957 9.33893H1.65975C0.746886 9.33893 0 10.0858 0 10.9987V12.9765C0 13.8894 0.746886 14.6225 1.65975 14.6225H31.5352C32.448 14.6225 33.1949 13.8894 33.1949 12.9765V10.9987C33.1949 10.0858 32.448 9.33893 31.5352 9.33893Z" fill="#008DE4"/>
<path d="M28.7274 17.4025H4.46748C3.59612 17.4025 2.93222 18.2047 3.11202 19.0761L5.53249 30.6943C5.93359 32.6169 7.63483 34 9.59887 34H23.5961C25.5601 34 27.2613 32.6169 27.6624 30.6943L30.0829 19.0623C30.2627 18.2047 29.5988 17.4025 28.7274 17.4025Z" fill="#008DE4"/>
</svg>
