<svg width="16" height="14" viewBox="0 0 16 14" fill="none" xmlns="http://www.w3.org/2000/svg">
<path fill-rule="evenodd" clip-rule="evenodd" d="M0 2.107C0 1.36414 0.61043 0.765154 1.35328 0.769177C5.02473 0.789061 7.29765 0.68866 9.33957 0.598462C11.0564 0.522622 12.61 0.453996 14.6943 0.470151C15.4189 0.475767 16 1.06912 16 1.79369V9.53244C16 10.2783 15.3846 10.8786 14.6388 10.8694C10.0038 10.8123 7.24889 10.9275 4.83063 11.0287C3.64471 11.0783 2.53977 11.1245 1.33379 11.1454C0.597519 11.1581 0 10.56 0 9.82365V2.107ZM10.3996 5.81063C10.3996 7.4233 9.32509 8.73063 7.99961 8.73063C6.67413 8.73063 5.59961 7.4233 5.59961 5.81063C5.59961 4.19795 6.67413 2.89062 7.99961 2.89062C9.32509 2.89062 10.3996 4.19795 10.3996 5.81063ZM13.5998 3.69082C14.0416 3.69082 14.3998 3.33265 14.3998 2.89082C14.3998 2.44899 14.0416 2.09082 13.5998 2.09082C13.158 2.09082 12.7998 2.44899 12.7998 2.89082C12.7998 3.33265 13.158 3.69082 13.5998 3.69082ZM3.19961 8.49043C3.19961 8.93226 2.84144 9.29043 2.39961 9.29043C1.95778 9.29043 1.59961 8.93226 1.59961 8.49043C1.59961 8.0486 1.95778 7.69043 2.39961 7.69043C2.84144 7.69043 3.19961 8.0486 3.19961 8.49043ZM1.86634 13.5326C4.02776 13.5326 5.90441 13.469 7.81979 13.4041L7.972 13.399C9.9412 13.3324 11.9625 13.266 14.3997 13.2659C14.6943 13.2659 14.933 13.0271 14.933 12.7325C14.933 12.438 14.6942 12.1992 14.3997 12.1992C11.9429 12.1993 9.90578 12.2663 7.93593 12.3329L7.78879 12.3379C5.87041 12.4029 4.00946 12.4659 1.86634 12.4659C1.57179 12.4659 1.33301 12.7047 1.33301 12.9992C1.33301 13.2938 1.57179 13.5326 1.86634 13.5326Z" fill="#AFB6BF"/>
</svg>
