<svg width="25.576" height="36" viewBox="0 0 25.576 36" fill="none" xmlns="http://www.w3.org/2000/svg">
<path fill-rule="evenodd" clip-rule="evenodd" d="M22.0146 19.9782C21.2735 21.672 20.2939 23.2511 19.1039 24.6665C19.9047 21.4878 19.5044 17.3879 17.7711 13.4046C16.899 11.3987 15.705 9.54895 14.236 7.92783C16.4377 6.14688 18.7317 5.56568 20.5055 6.3867C21.6424 6.91149 22.5066 7.98813 23.0394 9.49328C24.0282 12.3516 23.6442 16.2713 21.9989 19.9782H22.0146ZM3.53883 19.9782C1.9092 16.2713 1.53698 12.3718 2.51396 9.49328C3.03436 7.98425 3.91105 6.91149 5.04787 6.3867C6.82105 5.56568 9.11513 6.14688 11.3215 7.92783C9.85028 9.54769 8.65453 11.3975 7.78236 13.4046C6.03275 17.4082 5.64023 21.4878 6.44947 24.6619C5.25886 23.2492 4.27862 21.6714 3.53883 19.9782ZM14.4279 28.0137C13.3822 28.5045 12.1712 28.5045 11.1255 28.0137C7.71028 26.4397 7.01763 20.1144 9.61572 14.2138C10.3981 12.4124 11.4708 10.7513 12.7905 9.29734C14.1068 10.7513 15.175 12.4124 15.9534 14.2138C18.5352 20.1144 17.8433 26.4397 14.4279 28.0137ZM19.064 4.02054C17.0424 3.93667 14.8362 4.82125 12.7787 6.52699C10.7166 4.82125 8.51099 3.94457 6.48946 4.02054C10.2527 1.34183 15.3001 1.34183 19.064 4.02054ZM24.941 8.86482V8.82495C24.9404 8.81831 24.9404 8.81116 24.941 8.80465C22.7399 2.09478 15.5157 -1.56103 8.80523 0.64066C4.92601 1.91325 1.88826 4.96154 0.628203 8.84451C0.630083 8.85241 0.630083 8.86093 0.628203 8.86883C-0.500847 12.1877 -0.0926538 16.6318 1.72905 20.771C4.21895 26.4324 8.73903 30.3792 12.7387 30.3792H12.8547C16.8584 30.3792 21.3738 26.4436 23.8644 20.771C25.6696 16.6395 26.078 12.1877 24.941 8.86482ZM16.2017 33.4982C15.1199 33.8238 13.9968 33.9929 12.8671 33.9982H12.7105C11.5737 33.9943 10.4434 33.8225 9.35558 33.4903C8.82491 33.333 8.26791 33.6363 8.11057 34.1665C7.95399 34.6973 8.25675 35.2543 8.7868 35.4122C10.06 35.7955 11.381 35.9927 12.7105 36H12.8671C14.1882 35.9941 15.5013 35.7975 16.766 35.4162C17.2875 35.232 17.5614 34.6606 17.378 34.1391C17.2083 33.656 16.7004 33.379 16.2017 33.4982Z" fill="#49CC68"/>
</svg>
