<svg width="28.462" height="34" viewBox="0 0 28.4617 34.0001" fill="none" xmlns="http://www.w3.org/2000/svg">
<ellipse cx="14.2304" cy="7.26481" rx="7.26481" ry="7.26481" fill="#58595B"/>
<path d="M24.4026 23.8284C26.6444 23.8284 28.4617 22.0111 28.4617 19.7693C28.4617 17.5274 26.6444 15.7101 24.4026 15.7101C22.338 15.7101 20.6334 17.2514 20.3768 19.2461C22.394 19.834 23.893 21.638 24.0269 23.8113C24.1506 23.8226 24.2759 23.8284 24.4026 23.8284Z" fill="#178FE1"/>
<path d="M14.2293 22.2376C14.8941 20.5795 16.4068 19.3529 18.2311 19.0942C17.9096 17.1737 16.2396 15.7101 14.2278 15.7101C12.2161 15.7101 10.5461 17.1735 10.2245 19.0938C12.0501 19.3515 13.5642 20.5786 14.2293 22.2376Z" fill="#178FE1"/>
<path d="M8.08485 19.2452C6.06604 19.8322 4.5656 21.6371 4.43168 23.8116C4.30901 23.8227 4.18476 23.8284 4.05918 23.8284C1.81736 23.8284 5.72205e-06 22.0111 5.72205e-06 19.7693C5.72205e-06 17.5274 1.81736 15.7101 4.05918 15.7101C6.12344 15.7101 7.82781 17.2509 8.08485 19.2452Z" fill="#178FE1"/>
<path d="M18.2869 29.9409C18.2869 32.1828 16.4696 34.0001 14.2278 34.0001C11.9859 34.0001 10.1686 32.1828 10.1686 29.9409C10.1686 27.6991 11.9859 25.8818 14.2278 25.8818C16.4696 25.8818 18.2869 27.6991 18.2869 29.9409Z" fill="#178FE1"/>
<path d="M19.0029 28.1878C21.2209 28.1602 23.0105 26.3536 23.0105 24.129C23.0105 21.8872 21.1931 20.0698 18.9513 20.0698C16.7095 20.0698 14.8921 21.8872 14.8921 24.129C14.8921 24.3958 14.9179 24.6565 14.967 24.9089C16.833 25.1807 18.3704 26.4658 19.0029 28.1878Z" fill="#178FE1"/>
<path d="M13.4917 24.9084C13.5408 24.6562 13.5665 24.3956 13.5665 24.129C13.5665 21.8872 11.7491 20.0698 9.5073 20.0698C7.26548 20.0698 5.44812 21.8872 5.44812 24.129C5.44812 26.3526 7.23602 28.1586 9.45266 28.1878C10.0855 26.4648 11.6242 25.1792 13.4917 24.9084Z" fill="#178FE1"/>
</svg>
