<svg width="30.667" height="32" viewBox="0 0 30.6667 32" fill="none" xmlns="http://www.w3.org/2000/svg">
<path d="M29.9067 13.0267L23.64 2.58667C22.68 0.986667 20.9333 0 19.0667 0H4C1.78667 0 0 1.78667 0 4V28C0 30.2133 1.78667 32 4 32H22.6667C24.88 32 26.6667 30.2133 26.6667 28V22.6667H28C29.4667 22.6667 30.6667 21.4667 30.6667 20V15.7733C30.6667 14.8133 30.4 13.8533 29.9067 13.0267ZM28 20H9.33333V15.76C9.33333 15.04 9.18667 14.32 8.90667 13.6667L5.73333 6.28C5.46667 5.65333 5.09333 5.09333 4.61333 4.61333L3.05333 3.05333C3.30667 2.81333 3.62667 2.66667 4 2.66667H19.0667C20 2.66667 20.88 3.16 21.36 3.96L27.6133 14.4C27.8667 14.8133 28 15.2933 28 15.7733V20Z" fill="#008DE4"/>
<path d="M19.8133 4.98667C19.5733 4.58667 19.1333 4.33333 18.6667 4.33333H9.33333C8.6 4.33333 8 4.93333 8 5.66667C8 6.4 8.6 7 9.33333 7H17.3333V12H12.6667C12.2 12 11.7733 12.24 11.5333 12.6267C11.2933 13.0267 11.2667 13.52 11.48 13.9333L12.1467 15.2667C12.36 15.72 12.8267 16 13.3333 16H24C24.48 16 24.92 15.7467 25.16 15.3333C25.4 14.9067 25.3867 14.4 25.1467 13.9867L19.8133 4.98667Z" fill="#008DE4"/>
</svg>
